<?xml version="1.0" encoding="UTF-8" standalone="no"?>
<!DOCTYPE svg PUBLIC "-//W3C//DTD SVG 1.1//EN"
 "http://www.w3.org/Graphics/SVG/1.1/DTD/svg11.dtd">
<!-- Generated by graphviz version 2.38.0 (20140413.2041)
 -->
<!-- Title: classes_bt Pages: 1 -->
<svg width="200pt" height="666pt"
 viewBox="0.00 0.00 200.00 666.00" xmlns="http://www.w3.org/2000/svg" xmlns:xlink="http://www.w3.org/1999/xlink">
<g id="graph0" class="graph" transform="scale(1 1) rotate(0) translate(4 662)">
<title>classes_bt</title>
<polygon fill="white" stroke="none" points="-4,4 -4,-662 196,-662 196,4 -4,4"/>
<!-- 0 -->
<g id="node1" class="node"><title>0</title>
<polygon fill="none" stroke="black" points="11,-151.5 11,-490.5 192,-490.5 192,-151.5 11,-151.5"/>
<text text-anchor="middle" x="101.5" y="-475.3" font-family="Times,serif" font-size="14.00">BitTorrentClient</text>
<polyline fill="none" stroke="black" points="11,-467.5 192,-467.5 "/>
<text text-anchor="start" x="19" y="-452.3" font-family="Times,serif" font-size="14.00">end : bool</text>
<text text-anchor="start" x="19" y="-437.3" font-family="Times,serif" font-size="14.00">handles</text>
<text text-anchor="start" x="19" y="-422.3" font-family="Times,serif" font-size="14.00">name : str</text>
<text text-anchor="start" x="19" y="-407.3" font-family="Times,serif" font-size="14.00">session</text>
<text text-anchor="start" x="19" y="-392.3" font-family="Times,serif" font-size="14.00">statdb : str</text>
<polyline fill="none" stroke="black" points="11,-384.5 192,-384.5 "/>
<text text-anchor="start" x="19" y="-369.3" font-family="Times,serif" font-size="14.00">add_torrent_by_info()</text>
<text text-anchor="start" x="19" y="-354.3" font-family="Times,serif" font-size="14.00">erase_all_torrents_from_db()</text>
<text text-anchor="start" x="19" y="-339.3" font-family="Times,serif" font-size="14.00">handle_queue()</text>
<text text-anchor="start" x="19" y="-324.3" font-family="Times,serif" font-size="14.00">on_add_hash()</text>
<text text-anchor="start" x="19" y="-309.3" font-family="Times,serif" font-size="14.00">on_add_torrent()</text>
<text text-anchor="start" x="19" y="-294.3" font-family="Times,serif" font-size="14.00">on_del_torrent()</text>
<text text-anchor="start" x="19" y="-279.3" font-family="Times,serif" font-size="14.00">on_exit()</text>
<text text-anchor="start" x="19" y="-264.3" font-family="Times,serif" font-size="14.00">on_generate_torrent()</text>
<text text-anchor="start" x="19" y="-249.3" font-family="Times,serif" font-size="14.00">on_recheck_handles()</text>
<text text-anchor="start" x="19" y="-234.3" font-family="Times,serif" font-size="14.00">resume()</text>
<text text-anchor="start" x="19" y="-219.3" font-family="Times,serif" font-size="14.00">run()</text>
<text text-anchor="start" x="19" y="-204.3" font-family="Times,serif" font-size="14.00">safe_shutdown()</text>
<text text-anchor="start" x="19" y="-189.3" font-family="Times,serif" font-size="14.00">save()</text>
<text text-anchor="start" x="19" y="-174.3" font-family="Times,serif" font-size="14.00">setup_db()</text>
<text text-anchor="start" x="19" y="-159.3" font-family="Times,serif" font-size="14.00">setup_settings()</text>
</g>
<!-- 3 -->
<g id="node3" class="node"><title>3</title>
<polygon fill="none" stroke="black" points="0,-528.5 0,-657.5 105,-657.5 105,-528.5 0,-528.5"/>
<text text-anchor="middle" x="52.5" y="-642.3" font-family="Times,serif" font-size="14.00">Subscriber</text>
<polyline fill="none" stroke="black" points="0,-634.5 105,-634.5 "/>
<text text-anchor="start" x="8" y="-619.3" font-family="Times,serif" font-size="14.00">name : str</text>
<text text-anchor="start" x="8" y="-604.3" font-family="Times,serif" font-size="14.00">queue</text>
<polyline fill="none" stroke="black" points="0,-596.5 105,-596.5 "/>
<text text-anchor="start" x="8" y="-581.3" font-family="Times,serif" font-size="14.00">get_message()</text>
<text text-anchor="start" x="8" y="-566.3" font-family="Times,serif" font-size="14.00">has_messages()</text>
<text text-anchor="start" x="8" y="-551.3" font-family="Times,serif" font-size="14.00">publish()</text>
<text text-anchor="start" x="8" y="-536.3" font-family="Times,serif" font-size="14.00">subscribe()</text>
</g>
<!-- 0&#45;&gt;3 -->
<g id="edge1" class="edge"><title>0&#45;&gt;3</title>
<path fill="none" stroke="black" d="M70.8852,-490.694C69.1423,-500.297 67.4435,-509.658 65.8273,-518.564"/>
<polygon fill="none" stroke="black" points="62.3816,-517.95 64.0396,-528.414 69.2691,-519.2 62.3816,-517.95"/>
</g>
<!-- 4 -->
<g id="node4" class="node"><title>4</title>
<polygon fill="none" stroke="black" points="123,-557.5 123,-628.5 180,-628.5 180,-557.5 123,-557.5"/>
<text text-anchor="middle" x="151.5" y="-613.3" font-family="Times,serif" font-size="14.00">Thread</text>
<polyline fill="none" stroke="black" points="123,-605.5 180,-605.5 "/>
<polyline fill="none" stroke="black" points="123,-581.5 180,-581.5 "/>
</g>
<!-- 0&#45;&gt;4 -->
<g id="edge2" class="edge"><title>0&#45;&gt;4</title>
<path fill="none" stroke="black" d="M132.74,-490.694C136.561,-511.33 140.175,-530.845 143.192,-547.135"/>
<polygon fill="none" stroke="black" points="139.822,-548.158 145.084,-557.354 146.705,-546.884 139.822,-548.158"/>
</g>
<!-- 1 -->
<g id="node2" class="node"><title>1</title>
<polygon fill="none" stroke="black" points="57.5,-0.5 57.5,-99.5 145.5,-99.5 145.5,-0.5 57.5,-0.5"/>
<text text-anchor="middle" x="101.5" y="-84.3" font-family="Times,serif" font-size="14.00">Handles</text>
<polyline fill="none" stroke="black" points="57.5,-76.5 145.5,-76.5 "/>
<text text-anchor="start" x="65.5" y="-61.3" font-family="Times,serif" font-size="14.00">handles : list</text>
<polyline fill="none" stroke="black" points="57.5,-53.5 145.5,-53.5 "/>
<text text-anchor="start" x="65.5" y="-38.3" font-family="Times,serif" font-size="14.00">append()</text>
<text text-anchor="start" x="65.5" y="-23.3" font-family="Times,serif" font-size="14.00">get_shares()</text>
<text text-anchor="start" x="65.5" y="-8.3" font-family="Times,serif" font-size="14.00">remove()</text>
</g>
<!-- 1&#45;&gt;0 -->
<g id="edge3" class="edge"><title>1&#45;&gt;0</title>
<path fill="none" stroke="black" d="M101.5,-99.7139C101.5,-111.601 101.5,-125.023 101.5,-139.23"/>
<polygon fill="black" stroke="black" points="101.5,-139.331 105.5,-145.331 101.5,-151.331 97.5,-145.331 101.5,-139.331"/>
<text text-anchor="middle" x="123" y="-121.8" font-family="Times,serif" font-size="14.00" fill="green">handles</text>
</g>
</g>
</svg>
